<mxfile host="app.diagrams.net" modified="2021-08-12T10:50:08.328Z" agent="5.0 (Windows NT 10.0; Win64; x64) AppleWebKit/537.36 (KHTML, like Gecko) Chrome/92.0.4515.107 Safari/537.36" etag="yQl5m1JxD1P-OEqK5rKH" version="14.9.3" type="github" pages="4">
  <diagram id="Q1T-Zkgs5MgmYfnvXR1l" name="BootAgent">
    <mxGraphModel dx="6920" dy="3833" grid="1" gridSize="10" guides="1" tooltips="1" connect="1" arrows="1" fold="1" page="1" pageScale="1" pageWidth="3300" pageHeight="4681" math="0" shadow="0">
      <root>
        <mxCell id="0" />
        <mxCell id="1" parent="0" />
      </root>
    </mxGraphModel>
  </diagram>
  <diagram id="arV-CLxfomKhvWXkU4jW" name="BasicAgent">
    <mxGraphModel dx="1730" dy="958" grid="1" gridSize="10" guides="1" tooltips="1" connect="1" arrows="1" fold="1" page="1" pageScale="1" pageWidth="3300" pageHeight="4681" math="0" shadow="0">
      <root>
        <mxCell id="OTZCpAPJOvnVJneGJjNE-0" />
        <mxCell id="OTZCpAPJOvnVJneGJjNE-1" parent="OTZCpAPJOvnVJneGJjNE-0" />
      </root>
    </mxGraphModel>
  </diagram>
  <diagram id="6izOVLoUBxZyERyTg0_M" name="MonitorAgent">
    <mxGraphModel dx="2595" dy="1438" grid="1" gridSize="10" guides="1" tooltips="1" connect="1" arrows="1" fold="1" page="1" pageScale="1" pageWidth="1200" pageHeight="1920" math="0" shadow="0">
      <root>
        <mxCell id="47DsXtGxRaOM0_qZ-0rH-0" />
        <mxCell id="47DsXtGxRaOM0_qZ-0rH-1" parent="47DsXtGxRaOM0_qZ-0rH-0" />
        <mxCell id="JnaWuEPb16IbHwwAd0XI-8" value="" style="endArrow=none;html=1;verticalAlign=top;horizontal=1;align=center;strokeWidth=2;" edge="1" parent="47DsXtGxRaOM0_qZ-0rH-1">
          <mxGeometry width="50" height="50" relative="1" as="geometry">
            <mxPoint x="100" y="180" as="sourcePoint" />
            <mxPoint x="1600" y="180" as="targetPoint" />
          </mxGeometry>
        </mxCell>
        <mxCell id="JnaWuEPb16IbHwwAd0XI-74" value="" style="endArrow=none;dashed=1;html=1;dashPattern=1 3;strokeWidth=2;align=center;verticalAlign=top;" edge="1" parent="47DsXtGxRaOM0_qZ-0rH-1">
          <mxGeometry width="50" height="50" relative="1" as="geometry">
            <mxPoint x="120" y="370" as="sourcePoint" />
            <mxPoint x="120" y="180" as="targetPoint" />
          </mxGeometry>
        </mxCell>
        <mxCell id="JnaWuEPb16IbHwwAd0XI-75" value="" style="endArrow=none;dashed=1;html=1;dashPattern=1 3;strokeWidth=2;align=center;verticalAlign=top;" edge="1" parent="47DsXtGxRaOM0_qZ-0rH-1">
          <mxGeometry width="50" height="50" relative="1" as="geometry">
            <mxPoint x="290" y="370" as="sourcePoint" />
            <mxPoint x="290" y="180" as="targetPoint" />
          </mxGeometry>
        </mxCell>
        <mxCell id="JnaWuEPb16IbHwwAd0XI-93" value="" style="endArrow=none;dashed=1;html=1;dashPattern=1 3;strokeWidth=2;align=center;verticalAlign=top;" edge="1" parent="47DsXtGxRaOM0_qZ-0rH-1">
          <mxGeometry width="50" height="50" relative="1" as="geometry">
            <mxPoint x="460" y="370" as="sourcePoint" />
            <mxPoint x="460" y="180" as="targetPoint" />
          </mxGeometry>
        </mxCell>
        <mxCell id="JnaWuEPb16IbHwwAd0XI-111" value="" style="endArrow=none;dashed=1;html=1;dashPattern=1 3;strokeWidth=2;align=center;verticalAlign=top;" edge="1" parent="47DsXtGxRaOM0_qZ-0rH-1">
          <mxGeometry width="50" height="50" relative="1" as="geometry">
            <mxPoint x="630" y="370" as="sourcePoint" />
            <mxPoint x="630" y="180" as="targetPoint" />
          </mxGeometry>
        </mxCell>
        <mxCell id="JnaWuEPb16IbHwwAd0XI-133" value="&lt;font style=&quot;font-size: 18px&quot;&gt;&lt;b&gt;Counting&lt;/b&gt;&lt;/font&gt;" style="text;html=1;strokeColor=none;fillColor=none;align=center;verticalAlign=middle;whiteSpace=wrap;rounded=0;" vertex="1" parent="47DsXtGxRaOM0_qZ-0rH-1">
          <mxGeometry x="30" y="270" width="70" height="20" as="geometry" />
        </mxCell>
        <mxCell id="JnaWuEPb16IbHwwAd0XI-73" value="&lt;i&gt;sample_rate = 1&lt;/i&gt;" style="text;html=1;strokeColor=none;fillColor=none;align=center;verticalAlign=middle;whiteSpace=wrap;rounded=0;" vertex="1" parent="47DsXtGxRaOM0_qZ-0rH-1">
          <mxGeometry x="160" y="186" width="90" height="20" as="geometry" />
        </mxCell>
        <mxCell id="JnaWuEPb16IbHwwAd0XI-112" value="&lt;i&gt;sample_rate = 0.5&lt;/i&gt;" style="text;html=1;strokeColor=none;fillColor=none;align=center;verticalAlign=middle;whiteSpace=wrap;rounded=0;" vertex="1" parent="47DsXtGxRaOM0_qZ-0rH-1">
          <mxGeometry x="325" y="186" width="100" height="20" as="geometry" />
        </mxCell>
        <mxCell id="JnaWuEPb16IbHwwAd0XI-113" value="&lt;i&gt;sample_rate = 0.1&lt;/i&gt;" style="text;html=1;strokeColor=none;fillColor=none;align=center;verticalAlign=middle;whiteSpace=wrap;rounded=0;" vertex="1" parent="47DsXtGxRaOM0_qZ-0rH-1">
          <mxGeometry x="495" y="186" width="100" height="20" as="geometry" />
        </mxCell>
        <mxCell id="JnaWuEPb16IbHwwAd0XI-132" value="&lt;i&gt;sample_rate = 1&lt;/i&gt;" style="text;html=1;strokeColor=none;fillColor=none;align=center;verticalAlign=middle;whiteSpace=wrap;rounded=0;" vertex="1" parent="47DsXtGxRaOM0_qZ-0rH-1">
          <mxGeometry x="665" y="186" width="100" height="20" as="geometry" />
        </mxCell>
        <mxCell id="JnaWuEPb16IbHwwAd0XI-115" value="6" style="whiteSpace=wrap;html=1;aspect=fixed;fillColor=#dae8fc;strokeColor=#6c8ebf;" vertex="1" parent="47DsXtGxRaOM0_qZ-0rH-1">
          <mxGeometry x="640" y="210" width="30" height="30" as="geometry" />
        </mxCell>
        <mxCell id="JnaWuEPb16IbHwwAd0XI-117" value="5" style="whiteSpace=wrap;html=1;aspect=fixed;fillColor=#dae8fc;strokeColor=#6c8ebf;" vertex="1" parent="47DsXtGxRaOM0_qZ-0rH-1">
          <mxGeometry x="720" y="210" width="30" height="30" as="geometry" />
        </mxCell>
        <mxCell id="JnaWuEPb16IbHwwAd0XI-118" value="1" style="whiteSpace=wrap;html=1;aspect=fixed;fillColor=#dae8fc;strokeColor=#6c8ebf;" vertex="1" parent="47DsXtGxRaOM0_qZ-0rH-1">
          <mxGeometry x="760" y="210" width="30" height="30" as="geometry" />
        </mxCell>
        <mxCell id="JnaWuEPb16IbHwwAd0XI-120" value="3" style="whiteSpace=wrap;html=1;aspect=fixed;fillColor=#dae8fc;strokeColor=#6c8ebf;" vertex="1" parent="47DsXtGxRaOM0_qZ-0rH-1">
          <mxGeometry x="680" y="250" width="30" height="30" as="geometry" />
        </mxCell>
        <mxCell id="JnaWuEPb16IbHwwAd0XI-122" value="9" style="whiteSpace=wrap;html=1;aspect=fixed;fillColor=#dae8fc;strokeColor=#6c8ebf;" vertex="1" parent="47DsXtGxRaOM0_qZ-0rH-1">
          <mxGeometry x="760" y="250" width="30" height="30" as="geometry" />
        </mxCell>
        <mxCell id="JnaWuEPb16IbHwwAd0XI-123" value="1" style="whiteSpace=wrap;html=1;aspect=fixed;fillColor=#dae8fc;strokeColor=#6c8ebf;" vertex="1" parent="47DsXtGxRaOM0_qZ-0rH-1">
          <mxGeometry x="640" y="290" width="30" height="30" as="geometry" />
        </mxCell>
        <mxCell id="JnaWuEPb16IbHwwAd0XI-125" value="12" style="whiteSpace=wrap;html=1;aspect=fixed;fillColor=#dae8fc;strokeColor=#6c8ebf;" vertex="1" parent="47DsXtGxRaOM0_qZ-0rH-1">
          <mxGeometry x="720" y="290" width="30" height="30" as="geometry" />
        </mxCell>
        <mxCell id="JnaWuEPb16IbHwwAd0XI-127" value="8" style="whiteSpace=wrap;html=1;aspect=fixed;fillColor=#dae8fc;strokeColor=#6c8ebf;" vertex="1" parent="47DsXtGxRaOM0_qZ-0rH-1">
          <mxGeometry x="640" y="330" width="30" height="30" as="geometry" />
        </mxCell>
        <mxCell id="JnaWuEPb16IbHwwAd0XI-128" value="1" style="whiteSpace=wrap;html=1;aspect=fixed;fillColor=#dae8fc;strokeColor=#6c8ebf;" vertex="1" parent="47DsXtGxRaOM0_qZ-0rH-1">
          <mxGeometry x="680" y="330" width="30" height="30" as="geometry" />
        </mxCell>
        <mxCell id="JnaWuEPb16IbHwwAd0XI-130" value="1" style="whiteSpace=wrap;html=1;aspect=fixed;fillColor=#dae8fc;strokeColor=#6c8ebf;" vertex="1" parent="47DsXtGxRaOM0_qZ-0rH-1">
          <mxGeometry x="760" y="330" width="30" height="30" as="geometry" />
        </mxCell>
        <mxCell id="JnaWuEPb16IbHwwAd0XI-95" value="1" style="whiteSpace=wrap;html=1;aspect=fixed;fillColor=#dae8fc;strokeColor=#6c8ebf;" vertex="1" parent="47DsXtGxRaOM0_qZ-0rH-1">
          <mxGeometry x="470" y="210" width="30" height="30" as="geometry" />
        </mxCell>
        <mxCell id="JnaWuEPb16IbHwwAd0XI-96" value="1" style="whiteSpace=wrap;html=1;aspect=fixed;fillColor=#dae8fc;strokeColor=#6c8ebf;" vertex="1" parent="47DsXtGxRaOM0_qZ-0rH-1">
          <mxGeometry x="510" y="210" width="30" height="30" as="geometry" />
        </mxCell>
        <mxCell id="JnaWuEPb16IbHwwAd0XI-97" value="1" style="whiteSpace=wrap;html=1;aspect=fixed;fillColor=#dae8fc;strokeColor=#6c8ebf;" vertex="1" parent="47DsXtGxRaOM0_qZ-0rH-1">
          <mxGeometry x="550" y="210" width="30" height="30" as="geometry" />
        </mxCell>
        <mxCell id="JnaWuEPb16IbHwwAd0XI-99" value="1" style="whiteSpace=wrap;html=1;aspect=fixed;fillColor=#dae8fc;strokeColor=#6c8ebf;" vertex="1" parent="47DsXtGxRaOM0_qZ-0rH-1">
          <mxGeometry x="470" y="250" width="30" height="30" as="geometry" />
        </mxCell>
        <mxCell id="JnaWuEPb16IbHwwAd0XI-100" value="1" style="whiteSpace=wrap;html=1;aspect=fixed;fillColor=#dae8fc;strokeColor=#6c8ebf;" vertex="1" parent="47DsXtGxRaOM0_qZ-0rH-1">
          <mxGeometry x="510" y="250" width="30" height="30" as="geometry" />
        </mxCell>
        <mxCell id="JnaWuEPb16IbHwwAd0XI-101" value="1" style="whiteSpace=wrap;html=1;aspect=fixed;fillColor=#dae8fc;strokeColor=#6c8ebf;" vertex="1" parent="47DsXtGxRaOM0_qZ-0rH-1">
          <mxGeometry x="550" y="250" width="30" height="30" as="geometry" />
        </mxCell>
        <mxCell id="JnaWuEPb16IbHwwAd0XI-102" value="1" style="whiteSpace=wrap;html=1;aspect=fixed;fillColor=#dae8fc;strokeColor=#6c8ebf;" vertex="1" parent="47DsXtGxRaOM0_qZ-0rH-1">
          <mxGeometry x="590" y="250" width="30" height="30" as="geometry" />
        </mxCell>
        <mxCell id="JnaWuEPb16IbHwwAd0XI-104" value="1" style="whiteSpace=wrap;html=1;aspect=fixed;fillColor=#dae8fc;strokeColor=#6c8ebf;" vertex="1" parent="47DsXtGxRaOM0_qZ-0rH-1">
          <mxGeometry x="510" y="290" width="30" height="30" as="geometry" />
        </mxCell>
        <mxCell id="JnaWuEPb16IbHwwAd0XI-105" value="1" style="whiteSpace=wrap;html=1;aspect=fixed;fillColor=#dae8fc;strokeColor=#6c8ebf;" vertex="1" parent="47DsXtGxRaOM0_qZ-0rH-1">
          <mxGeometry x="550" y="290" width="30" height="30" as="geometry" />
        </mxCell>
        <mxCell id="JnaWuEPb16IbHwwAd0XI-106" value="1" style="whiteSpace=wrap;html=1;aspect=fixed;fillColor=#dae8fc;strokeColor=#6c8ebf;" vertex="1" parent="47DsXtGxRaOM0_qZ-0rH-1">
          <mxGeometry x="590" y="290" width="30" height="30" as="geometry" />
        </mxCell>
        <mxCell id="JnaWuEPb16IbHwwAd0XI-107" value="1" style="whiteSpace=wrap;html=1;aspect=fixed;fillColor=#dae8fc;strokeColor=#6c8ebf;" vertex="1" parent="47DsXtGxRaOM0_qZ-0rH-1">
          <mxGeometry x="470" y="330" width="30" height="30" as="geometry" />
        </mxCell>
        <mxCell id="JnaWuEPb16IbHwwAd0XI-108" value="1" style="whiteSpace=wrap;html=1;aspect=fixed;fillColor=#dae8fc;strokeColor=#6c8ebf;" vertex="1" parent="47DsXtGxRaOM0_qZ-0rH-1">
          <mxGeometry x="510" y="330" width="30" height="30" as="geometry" />
        </mxCell>
        <mxCell id="JnaWuEPb16IbHwwAd0XI-109" value="1" style="whiteSpace=wrap;html=1;aspect=fixed;fillColor=#dae8fc;strokeColor=#6c8ebf;" vertex="1" parent="47DsXtGxRaOM0_qZ-0rH-1">
          <mxGeometry x="550" y="330" width="30" height="30" as="geometry" />
        </mxCell>
        <mxCell id="JnaWuEPb16IbHwwAd0XI-110" value="1" style="whiteSpace=wrap;html=1;aspect=fixed;fillColor=#dae8fc;strokeColor=#6c8ebf;" vertex="1" parent="47DsXtGxRaOM0_qZ-0rH-1">
          <mxGeometry x="590" y="330" width="30" height="30" as="geometry" />
        </mxCell>
        <mxCell id="JnaWuEPb16IbHwwAd0XI-385" value="" style="endArrow=none;html=1;verticalAlign=top;horizontal=1;align=center;strokeWidth=2;" edge="1" parent="47DsXtGxRaOM0_qZ-0rH-1">
          <mxGeometry width="50" height="50" relative="1" as="geometry">
            <mxPoint x="100" y="370" as="sourcePoint" />
            <mxPoint x="1600" y="370" as="targetPoint" />
          </mxGeometry>
        </mxCell>
        <mxCell id="JnaWuEPb16IbHwwAd0XI-1" value="&lt;font style=&quot;font-size: 24px&quot;&gt;&lt;b&gt;StatsD&lt;/b&gt;&lt;/font&gt;" style="rounded=1;whiteSpace=wrap;html=1;" vertex="1" parent="47DsXtGxRaOM0_qZ-0rH-1">
          <mxGeometry x="800" y="150" width="110" height="250" as="geometry" />
        </mxCell>
        <mxCell id="JnaWuEPb16IbHwwAd0XI-78" value="1" style="whiteSpace=wrap;html=1;aspect=fixed;fillColor=#dae8fc;strokeColor=#6c8ebf;" vertex="1" parent="47DsXtGxRaOM0_qZ-0rH-1">
          <mxGeometry x="340" y="210" width="30" height="30" as="geometry" />
        </mxCell>
        <mxCell id="JnaWuEPb16IbHwwAd0XI-79" value="1" style="whiteSpace=wrap;html=1;aspect=fixed;fillColor=#dae8fc;strokeColor=#6c8ebf;" vertex="1" parent="47DsXtGxRaOM0_qZ-0rH-1">
          <mxGeometry x="380" y="210" width="30" height="30" as="geometry" />
        </mxCell>
        <mxCell id="JnaWuEPb16IbHwwAd0XI-80" value="1" style="whiteSpace=wrap;html=1;aspect=fixed;fillColor=#dae8fc;strokeColor=#6c8ebf;" vertex="1" parent="47DsXtGxRaOM0_qZ-0rH-1">
          <mxGeometry x="420" y="210" width="30" height="30" as="geometry" />
        </mxCell>
        <mxCell id="JnaWuEPb16IbHwwAd0XI-81" value="1" style="whiteSpace=wrap;html=1;aspect=fixed;fillColor=#dae8fc;strokeColor=#6c8ebf;" vertex="1" parent="47DsXtGxRaOM0_qZ-0rH-1">
          <mxGeometry x="300" y="250" width="30" height="30" as="geometry" />
        </mxCell>
        <mxCell id="JnaWuEPb16IbHwwAd0XI-82" value="1" style="whiteSpace=wrap;html=1;aspect=fixed;fillColor=#dae8fc;strokeColor=#6c8ebf;" vertex="1" parent="47DsXtGxRaOM0_qZ-0rH-1">
          <mxGeometry x="340" y="250" width="30" height="30" as="geometry" />
        </mxCell>
        <mxCell id="JnaWuEPb16IbHwwAd0XI-84" value="1" style="whiteSpace=wrap;html=1;aspect=fixed;fillColor=#dae8fc;strokeColor=#6c8ebf;" vertex="1" parent="47DsXtGxRaOM0_qZ-0rH-1">
          <mxGeometry x="420" y="250" width="30" height="30" as="geometry" />
        </mxCell>
        <mxCell id="JnaWuEPb16IbHwwAd0XI-86" value="1" style="whiteSpace=wrap;html=1;aspect=fixed;fillColor=#dae8fc;strokeColor=#6c8ebf;" vertex="1" parent="47DsXtGxRaOM0_qZ-0rH-1">
          <mxGeometry x="340" y="290" width="30" height="30" as="geometry" />
        </mxCell>
        <mxCell id="JnaWuEPb16IbHwwAd0XI-87" value="1" style="whiteSpace=wrap;html=1;aspect=fixed;fillColor=#dae8fc;strokeColor=#6c8ebf;" vertex="1" parent="47DsXtGxRaOM0_qZ-0rH-1">
          <mxGeometry x="380" y="290" width="30" height="30" as="geometry" />
        </mxCell>
        <mxCell id="JnaWuEPb16IbHwwAd0XI-88" value="1" style="whiteSpace=wrap;html=1;aspect=fixed;fillColor=#dae8fc;strokeColor=#6c8ebf;" vertex="1" parent="47DsXtGxRaOM0_qZ-0rH-1">
          <mxGeometry x="420" y="290" width="30" height="30" as="geometry" />
        </mxCell>
        <mxCell id="JnaWuEPb16IbHwwAd0XI-89" value="1" style="whiteSpace=wrap;html=1;aspect=fixed;fillColor=#dae8fc;strokeColor=#6c8ebf;" vertex="1" parent="47DsXtGxRaOM0_qZ-0rH-1">
          <mxGeometry x="300" y="330" width="30" height="30" as="geometry" />
        </mxCell>
        <mxCell id="JnaWuEPb16IbHwwAd0XI-90" value="1" style="whiteSpace=wrap;html=1;aspect=fixed;fillColor=#dae8fc;strokeColor=#6c8ebf;" vertex="1" parent="47DsXtGxRaOM0_qZ-0rH-1">
          <mxGeometry x="340" y="330" width="30" height="30" as="geometry" />
        </mxCell>
        <mxCell id="JnaWuEPb16IbHwwAd0XI-92" value="1" style="whiteSpace=wrap;html=1;aspect=fixed;fillColor=#dae8fc;strokeColor=#6c8ebf;" vertex="1" parent="47DsXtGxRaOM0_qZ-0rH-1">
          <mxGeometry x="420" y="330" width="30" height="30" as="geometry" />
        </mxCell>
        <mxCell id="JnaWuEPb16IbHwwAd0XI-14" value="1" style="whiteSpace=wrap;html=1;aspect=fixed;fillColor=#dae8fc;strokeColor=#6c8ebf;" vertex="1" parent="47DsXtGxRaOM0_qZ-0rH-1">
          <mxGeometry x="130" y="210" width="30" height="30" as="geometry" />
        </mxCell>
        <mxCell id="JnaWuEPb16IbHwwAd0XI-16" value="1" style="whiteSpace=wrap;html=1;aspect=fixed;fillColor=#dae8fc;strokeColor=#6c8ebf;" vertex="1" parent="47DsXtGxRaOM0_qZ-0rH-1">
          <mxGeometry x="170" y="210" width="30" height="30" as="geometry" />
        </mxCell>
        <mxCell id="JnaWuEPb16IbHwwAd0XI-20" value="1" style="whiteSpace=wrap;html=1;aspect=fixed;fillColor=#dae8fc;strokeColor=#6c8ebf;" vertex="1" parent="47DsXtGxRaOM0_qZ-0rH-1">
          <mxGeometry x="250" y="210" width="30" height="30" as="geometry" />
        </mxCell>
        <mxCell id="JnaWuEPb16IbHwwAd0XI-23" value="1" style="whiteSpace=wrap;html=1;aspect=fixed;fillColor=#dae8fc;strokeColor=#6c8ebf;" vertex="1" parent="47DsXtGxRaOM0_qZ-0rH-1">
          <mxGeometry x="130" y="250" width="30" height="30" as="geometry" />
        </mxCell>
        <mxCell id="JnaWuEPb16IbHwwAd0XI-25" value="1" style="whiteSpace=wrap;html=1;aspect=fixed;fillColor=#dae8fc;strokeColor=#6c8ebf;" vertex="1" parent="47DsXtGxRaOM0_qZ-0rH-1">
          <mxGeometry x="210" y="250" width="30" height="30" as="geometry" />
        </mxCell>
        <mxCell id="JnaWuEPb16IbHwwAd0XI-26" value="1" style="whiteSpace=wrap;html=1;aspect=fixed;fillColor=#dae8fc;strokeColor=#6c8ebf;" vertex="1" parent="47DsXtGxRaOM0_qZ-0rH-1">
          <mxGeometry x="250" y="250" width="30" height="30" as="geometry" />
        </mxCell>
        <mxCell id="JnaWuEPb16IbHwwAd0XI-27" value="1" style="whiteSpace=wrap;html=1;aspect=fixed;fillColor=#dae8fc;strokeColor=#6c8ebf;" vertex="1" parent="47DsXtGxRaOM0_qZ-0rH-1">
          <mxGeometry x="130" y="290" width="30" height="30" as="geometry" />
        </mxCell>
        <mxCell id="JnaWuEPb16IbHwwAd0XI-28" value="1" style="whiteSpace=wrap;html=1;aspect=fixed;fillColor=#dae8fc;strokeColor=#6c8ebf;" vertex="1" parent="47DsXtGxRaOM0_qZ-0rH-1">
          <mxGeometry x="170" y="290" width="30" height="30" as="geometry" />
        </mxCell>
        <mxCell id="JnaWuEPb16IbHwwAd0XI-29" value="1" style="whiteSpace=wrap;html=1;aspect=fixed;fillColor=#dae8fc;strokeColor=#6c8ebf;" vertex="1" parent="47DsXtGxRaOM0_qZ-0rH-1">
          <mxGeometry x="210" y="290" width="30" height="30" as="geometry" />
        </mxCell>
        <mxCell id="JnaWuEPb16IbHwwAd0XI-30" value="1" style="whiteSpace=wrap;html=1;aspect=fixed;fillColor=#dae8fc;strokeColor=#6c8ebf;" vertex="1" parent="47DsXtGxRaOM0_qZ-0rH-1">
          <mxGeometry x="250" y="290" width="30" height="30" as="geometry" />
        </mxCell>
        <mxCell id="JnaWuEPb16IbHwwAd0XI-32" value="1" style="whiteSpace=wrap;html=1;aspect=fixed;fillColor=#dae8fc;strokeColor=#6c8ebf;" vertex="1" parent="47DsXtGxRaOM0_qZ-0rH-1">
          <mxGeometry x="170" y="330" width="30" height="30" as="geometry" />
        </mxCell>
        <mxCell id="JnaWuEPb16IbHwwAd0XI-34" value="1" style="whiteSpace=wrap;html=1;aspect=fixed;fillColor=#dae8fc;strokeColor=#6c8ebf;" vertex="1" parent="47DsXtGxRaOM0_qZ-0rH-1">
          <mxGeometry x="250" y="330" width="30" height="30" as="geometry" />
        </mxCell>
        <mxCell id="JnaWuEPb16IbHwwAd0XI-386" value="&lt;font style=&quot;font-size: 48px&quot;&gt;12&lt;/font&gt;&lt;br&gt;&lt;span style=&quot;font-size: 24px&quot;&gt;=12/1&lt;/span&gt;" style="whiteSpace=wrap;html=1;aspect=fixed;verticalAlign=middle;fillColor=#f5f5f5;strokeColor=#666666;fontColor=#333333;" vertex="1" parent="47DsXtGxRaOM0_qZ-0rH-1">
          <mxGeometry x="920" y="210" width="150" height="150" as="geometry" />
        </mxCell>
        <mxCell id="JnaWuEPb16IbHwwAd0XI-387" value="" style="endArrow=none;dashed=1;html=1;dashPattern=1 3;strokeWidth=2;align=center;verticalAlign=top;" edge="1" parent="47DsXtGxRaOM0_qZ-0rH-1">
          <mxGeometry width="50" height="50" relative="1" as="geometry">
            <mxPoint x="1080" y="370" as="sourcePoint" />
            <mxPoint x="1080" y="180" as="targetPoint" />
          </mxGeometry>
        </mxCell>
        <mxCell id="JnaWuEPb16IbHwwAd0XI-388" value="&lt;font&gt;&lt;font style=&quot;font-size: 48px&quot;&gt;24&lt;/font&gt;&lt;br&gt;&lt;span style=&quot;font-size: 24px&quot;&gt;=12/0.5&lt;/span&gt;&lt;br&gt;&lt;/font&gt;" style="whiteSpace=wrap;html=1;aspect=fixed;verticalAlign=middle;fillColor=#f5f5f5;strokeColor=#666666;fontColor=#333333;" vertex="1" parent="47DsXtGxRaOM0_qZ-0rH-1">
          <mxGeometry x="1090" y="210" width="150" height="150" as="geometry" />
        </mxCell>
        <mxCell id="JnaWuEPb16IbHwwAd0XI-389" value="" style="endArrow=none;dashed=1;html=1;dashPattern=1 3;strokeWidth=2;align=center;verticalAlign=top;" edge="1" parent="47DsXtGxRaOM0_qZ-0rH-1">
          <mxGeometry width="50" height="50" relative="1" as="geometry">
            <mxPoint x="1250" y="369.9999999999999" as="sourcePoint" />
            <mxPoint x="1250" y="180" as="targetPoint" />
          </mxGeometry>
        </mxCell>
        <mxCell id="JnaWuEPb16IbHwwAd0XI-390" value="&lt;font style=&quot;font-size: 48px&quot;&gt;140&lt;/font&gt;&lt;br&gt;&lt;span style=&quot;font-size: 24px&quot;&gt;=14/0.1&lt;/span&gt;" style="whiteSpace=wrap;html=1;aspect=fixed;verticalAlign=middle;fillColor=#f5f5f5;strokeColor=#666666;fontColor=#333333;" vertex="1" parent="47DsXtGxRaOM0_qZ-0rH-1">
          <mxGeometry x="1260" y="210" width="150" height="150" as="geometry" />
        </mxCell>
        <mxCell id="JnaWuEPb16IbHwwAd0XI-391" value="" style="endArrow=none;dashed=1;html=1;dashPattern=1 3;strokeWidth=2;align=center;verticalAlign=top;" edge="1" parent="47DsXtGxRaOM0_qZ-0rH-1">
          <mxGeometry width="50" height="50" relative="1" as="geometry">
            <mxPoint x="1420" y="369.9999999999999" as="sourcePoint" />
            <mxPoint x="1420" y="180" as="targetPoint" />
          </mxGeometry>
        </mxCell>
        <mxCell id="JnaWuEPb16IbHwwAd0XI-392" value="&lt;font style=&quot;font-size: 48px&quot;&gt;47&lt;/font&gt;&lt;br&gt;&lt;span style=&quot;font-size: 24px&quot;&gt;=47/1&lt;/span&gt;" style="whiteSpace=wrap;html=1;aspect=fixed;verticalAlign=middle;fillColor=#f5f5f5;strokeColor=#666666;fontColor=#333333;" vertex="1" parent="47DsXtGxRaOM0_qZ-0rH-1">
          <mxGeometry x="1430" y="210" width="150" height="150" as="geometry" />
        </mxCell>
        <mxCell id="JnaWuEPb16IbHwwAd0XI-393" value="&lt;i&gt;sample_rate = 1&lt;/i&gt;" style="text;html=1;strokeColor=none;fillColor=none;align=center;verticalAlign=middle;whiteSpace=wrap;rounded=0;" vertex="1" parent="47DsXtGxRaOM0_qZ-0rH-1">
          <mxGeometry x="950" y="186" width="90" height="20" as="geometry" />
        </mxCell>
        <mxCell id="JnaWuEPb16IbHwwAd0XI-394" value="&lt;i&gt;sample_rate = 0.5&lt;/i&gt;" style="text;html=1;strokeColor=none;fillColor=none;align=center;verticalAlign=middle;whiteSpace=wrap;rounded=0;" vertex="1" parent="47DsXtGxRaOM0_qZ-0rH-1">
          <mxGeometry x="1115" y="186" width="100" height="20" as="geometry" />
        </mxCell>
        <mxCell id="JnaWuEPb16IbHwwAd0XI-395" value="&lt;i&gt;sample_rate = 0.1&lt;/i&gt;" style="text;html=1;strokeColor=none;fillColor=none;align=center;verticalAlign=middle;whiteSpace=wrap;rounded=0;" vertex="1" parent="47DsXtGxRaOM0_qZ-0rH-1">
          <mxGeometry x="1285" y="186" width="100" height="20" as="geometry" />
        </mxCell>
        <mxCell id="JnaWuEPb16IbHwwAd0XI-396" value="&lt;i&gt;sample_rate = 1&lt;/i&gt;" style="text;html=1;strokeColor=none;fillColor=none;align=center;verticalAlign=middle;whiteSpace=wrap;rounded=0;" vertex="1" parent="47DsXtGxRaOM0_qZ-0rH-1">
          <mxGeometry x="1455" y="186" width="100" height="20" as="geometry" />
        </mxCell>
        <mxCell id="JnaWuEPb16IbHwwAd0XI-397" value="" style="endArrow=none;html=1;verticalAlign=top;horizontal=1;align=center;strokeWidth=2;" edge="1" parent="47DsXtGxRaOM0_qZ-0rH-1">
          <mxGeometry width="50" height="50" relative="1" as="geometry">
            <mxPoint x="100" y="500" as="sourcePoint" />
            <mxPoint x="1600" y="500" as="targetPoint" />
          </mxGeometry>
        </mxCell>
        <mxCell id="JnaWuEPb16IbHwwAd0XI-398" value="" style="endArrow=none;dashed=1;html=1;dashPattern=1 3;strokeWidth=2;align=center;verticalAlign=top;" edge="1" parent="47DsXtGxRaOM0_qZ-0rH-1">
          <mxGeometry width="50" height="50" relative="1" as="geometry">
            <mxPoint x="120" y="690" as="sourcePoint" />
            <mxPoint x="120" y="500" as="targetPoint" />
          </mxGeometry>
        </mxCell>
        <mxCell id="JnaWuEPb16IbHwwAd0XI-399" value="" style="endArrow=none;dashed=1;html=1;dashPattern=1 3;strokeWidth=2;align=center;verticalAlign=top;" edge="1" parent="47DsXtGxRaOM0_qZ-0rH-1">
          <mxGeometry width="50" height="50" relative="1" as="geometry">
            <mxPoint x="290" y="690" as="sourcePoint" />
            <mxPoint x="290" y="500" as="targetPoint" />
          </mxGeometry>
        </mxCell>
        <mxCell id="JnaWuEPb16IbHwwAd0XI-400" value="" style="endArrow=none;dashed=1;html=1;dashPattern=1 3;strokeWidth=2;align=center;verticalAlign=top;" edge="1" parent="47DsXtGxRaOM0_qZ-0rH-1">
          <mxGeometry width="50" height="50" relative="1" as="geometry">
            <mxPoint x="460" y="690" as="sourcePoint" />
            <mxPoint x="460" y="500" as="targetPoint" />
          </mxGeometry>
        </mxCell>
        <mxCell id="JnaWuEPb16IbHwwAd0XI-401" value="" style="endArrow=none;dashed=1;html=1;dashPattern=1 3;strokeWidth=2;align=center;verticalAlign=top;" edge="1" parent="47DsXtGxRaOM0_qZ-0rH-1">
          <mxGeometry width="50" height="50" relative="1" as="geometry">
            <mxPoint x="630" y="690" as="sourcePoint" />
            <mxPoint x="630" y="500" as="targetPoint" />
          </mxGeometry>
        </mxCell>
        <mxCell id="JnaWuEPb16IbHwwAd0XI-402" value="&lt;font style=&quot;font-size: 18px&quot;&gt;&lt;b&gt;Timing&lt;/b&gt;&lt;/font&gt;" style="text;html=1;strokeColor=none;fillColor=none;align=center;verticalAlign=middle;whiteSpace=wrap;rounded=0;" vertex="1" parent="47DsXtGxRaOM0_qZ-0rH-1">
          <mxGeometry x="30" y="590" width="70" height="20" as="geometry" />
        </mxCell>
        <mxCell id="JnaWuEPb16IbHwwAd0XI-403" value="&lt;i&gt;sample_rate = 1&lt;/i&gt;" style="text;html=1;strokeColor=none;fillColor=none;align=center;verticalAlign=middle;whiteSpace=wrap;rounded=0;" vertex="1" parent="47DsXtGxRaOM0_qZ-0rH-1">
          <mxGeometry x="160" y="506" width="90" height="20" as="geometry" />
        </mxCell>
        <mxCell id="JnaWuEPb16IbHwwAd0XI-404" value="&lt;i&gt;sample_rate = 0.5&lt;/i&gt;" style="text;html=1;strokeColor=none;fillColor=none;align=center;verticalAlign=middle;whiteSpace=wrap;rounded=0;" vertex="1" parent="47DsXtGxRaOM0_qZ-0rH-1">
          <mxGeometry x="325" y="506" width="100" height="20" as="geometry" />
        </mxCell>
        <mxCell id="JnaWuEPb16IbHwwAd0XI-405" value="&lt;i&gt;sample_rate = 0.1&lt;/i&gt;" style="text;html=1;strokeColor=none;fillColor=none;align=center;verticalAlign=middle;whiteSpace=wrap;rounded=0;" vertex="1" parent="47DsXtGxRaOM0_qZ-0rH-1">
          <mxGeometry x="495" y="506" width="100" height="20" as="geometry" />
        </mxCell>
        <mxCell id="JnaWuEPb16IbHwwAd0XI-406" value="&lt;i&gt;sample_rate = 1&lt;/i&gt;" style="text;html=1;strokeColor=none;fillColor=none;align=center;verticalAlign=middle;whiteSpace=wrap;rounded=0;" vertex="1" parent="47DsXtGxRaOM0_qZ-0rH-1">
          <mxGeometry x="665" y="506" width="100" height="20" as="geometry" />
        </mxCell>
        <mxCell id="JnaWuEPb16IbHwwAd0XI-407" value="6" style="whiteSpace=wrap;html=1;aspect=fixed;fillColor=#dae8fc;strokeColor=#6c8ebf;" vertex="1" parent="47DsXtGxRaOM0_qZ-0rH-1">
          <mxGeometry x="640" y="530" width="30" height="30" as="geometry" />
        </mxCell>
        <mxCell id="JnaWuEPb16IbHwwAd0XI-408" value="5" style="whiteSpace=wrap;html=1;aspect=fixed;fillColor=#dae8fc;strokeColor=#6c8ebf;" vertex="1" parent="47DsXtGxRaOM0_qZ-0rH-1">
          <mxGeometry x="720" y="530" width="30" height="30" as="geometry" />
        </mxCell>
        <mxCell id="JnaWuEPb16IbHwwAd0XI-409" value="1" style="whiteSpace=wrap;html=1;aspect=fixed;fillColor=#dae8fc;strokeColor=#6c8ebf;" vertex="1" parent="47DsXtGxRaOM0_qZ-0rH-1">
          <mxGeometry x="760" y="530" width="30" height="30" as="geometry" />
        </mxCell>
        <mxCell id="JnaWuEPb16IbHwwAd0XI-410" value="3" style="whiteSpace=wrap;html=1;aspect=fixed;fillColor=#dae8fc;strokeColor=#6c8ebf;" vertex="1" parent="47DsXtGxRaOM0_qZ-0rH-1">
          <mxGeometry x="680" y="570" width="30" height="30" as="geometry" />
        </mxCell>
        <mxCell id="JnaWuEPb16IbHwwAd0XI-411" value="9" style="whiteSpace=wrap;html=1;aspect=fixed;fillColor=#dae8fc;strokeColor=#6c8ebf;" vertex="1" parent="47DsXtGxRaOM0_qZ-0rH-1">
          <mxGeometry x="760" y="570" width="30" height="30" as="geometry" />
        </mxCell>
        <mxCell id="JnaWuEPb16IbHwwAd0XI-412" value="20" style="whiteSpace=wrap;html=1;aspect=fixed;fillColor=#dae8fc;strokeColor=#6c8ebf;" vertex="1" parent="47DsXtGxRaOM0_qZ-0rH-1">
          <mxGeometry x="640" y="610" width="30" height="30" as="geometry" />
        </mxCell>
        <mxCell id="JnaWuEPb16IbHwwAd0XI-413" value="12" style="whiteSpace=wrap;html=1;aspect=fixed;fillColor=#dae8fc;strokeColor=#6c8ebf;" vertex="1" parent="47DsXtGxRaOM0_qZ-0rH-1">
          <mxGeometry x="720" y="610" width="30" height="30" as="geometry" />
        </mxCell>
        <mxCell id="JnaWuEPb16IbHwwAd0XI-414" value="8" style="whiteSpace=wrap;html=1;aspect=fixed;fillColor=#dae8fc;strokeColor=#6c8ebf;" vertex="1" parent="47DsXtGxRaOM0_qZ-0rH-1">
          <mxGeometry x="640" y="650" width="30" height="30" as="geometry" />
        </mxCell>
        <mxCell id="JnaWuEPb16IbHwwAd0XI-415" value="7" style="whiteSpace=wrap;html=1;aspect=fixed;fillColor=#dae8fc;strokeColor=#6c8ebf;" vertex="1" parent="47DsXtGxRaOM0_qZ-0rH-1">
          <mxGeometry x="680" y="650" width="30" height="30" as="geometry" />
        </mxCell>
        <mxCell id="JnaWuEPb16IbHwwAd0XI-416" value="1" style="whiteSpace=wrap;html=1;aspect=fixed;fillColor=#dae8fc;strokeColor=#6c8ebf;" vertex="1" parent="47DsXtGxRaOM0_qZ-0rH-1">
          <mxGeometry x="760" y="650" width="30" height="30" as="geometry" />
        </mxCell>
        <mxCell id="JnaWuEPb16IbHwwAd0XI-431" value="" style="endArrow=none;html=1;verticalAlign=top;horizontal=1;align=center;strokeWidth=2;" edge="1" parent="47DsXtGxRaOM0_qZ-0rH-1">
          <mxGeometry width="50" height="50" relative="1" as="geometry">
            <mxPoint x="100" y="690" as="sourcePoint" />
            <mxPoint x="1600" y="690" as="targetPoint" />
          </mxGeometry>
        </mxCell>
        <mxCell id="JnaWuEPb16IbHwwAd0XI-432" value="&lt;font style=&quot;font-size: 24px&quot;&gt;&lt;b&gt;StatsD&lt;/b&gt;&lt;/font&gt;" style="rounded=1;whiteSpace=wrap;html=1;" vertex="1" parent="47DsXtGxRaOM0_qZ-0rH-1">
          <mxGeometry x="800" y="470" width="110" height="250" as="geometry" />
        </mxCell>
        <mxCell id="JnaWuEPb16IbHwwAd0XI-445" value="1" style="whiteSpace=wrap;html=1;aspect=fixed;fillColor=#dae8fc;strokeColor=#6c8ebf;" vertex="1" parent="47DsXtGxRaOM0_qZ-0rH-1">
          <mxGeometry x="130" y="530" width="30" height="30" as="geometry" />
        </mxCell>
        <mxCell id="JnaWuEPb16IbHwwAd0XI-446" value="2" style="whiteSpace=wrap;html=1;aspect=fixed;fillColor=#dae8fc;strokeColor=#6c8ebf;" vertex="1" parent="47DsXtGxRaOM0_qZ-0rH-1">
          <mxGeometry x="170" y="530" width="30" height="30" as="geometry" />
        </mxCell>
        <mxCell id="JnaWuEPb16IbHwwAd0XI-447" value="4" style="whiteSpace=wrap;html=1;aspect=fixed;fillColor=#dae8fc;strokeColor=#6c8ebf;" vertex="1" parent="47DsXtGxRaOM0_qZ-0rH-1">
          <mxGeometry x="250" y="530" width="30" height="30" as="geometry" />
        </mxCell>
        <mxCell id="JnaWuEPb16IbHwwAd0XI-448" value="5" style="whiteSpace=wrap;html=1;aspect=fixed;fillColor=#dae8fc;strokeColor=#6c8ebf;" vertex="1" parent="47DsXtGxRaOM0_qZ-0rH-1">
          <mxGeometry x="130" y="570" width="30" height="30" as="geometry" />
        </mxCell>
        <mxCell id="JnaWuEPb16IbHwwAd0XI-449" value="7" style="whiteSpace=wrap;html=1;aspect=fixed;fillColor=#dae8fc;strokeColor=#6c8ebf;" vertex="1" parent="47DsXtGxRaOM0_qZ-0rH-1">
          <mxGeometry x="210" y="570" width="30" height="30" as="geometry" />
        </mxCell>
        <mxCell id="JnaWuEPb16IbHwwAd0XI-450" value="8" style="whiteSpace=wrap;html=1;aspect=fixed;fillColor=#dae8fc;strokeColor=#6c8ebf;" vertex="1" parent="47DsXtGxRaOM0_qZ-0rH-1">
          <mxGeometry x="250" y="570" width="30" height="30" as="geometry" />
        </mxCell>
        <mxCell id="JnaWuEPb16IbHwwAd0XI-451" value="9" style="whiteSpace=wrap;html=1;aspect=fixed;fillColor=#dae8fc;strokeColor=#6c8ebf;" vertex="1" parent="47DsXtGxRaOM0_qZ-0rH-1">
          <mxGeometry x="130" y="610" width="30" height="30" as="geometry" />
        </mxCell>
        <mxCell id="JnaWuEPb16IbHwwAd0XI-452" value="10" style="whiteSpace=wrap;html=1;aspect=fixed;fillColor=#dae8fc;strokeColor=#6c8ebf;" vertex="1" parent="47DsXtGxRaOM0_qZ-0rH-1">
          <mxGeometry x="170" y="610" width="30" height="30" as="geometry" />
        </mxCell>
        <mxCell id="JnaWuEPb16IbHwwAd0XI-453" value="11" style="whiteSpace=wrap;html=1;aspect=fixed;fillColor=#dae8fc;strokeColor=#6c8ebf;" vertex="1" parent="47DsXtGxRaOM0_qZ-0rH-1">
          <mxGeometry x="210" y="610" width="30" height="30" as="geometry" />
        </mxCell>
        <mxCell id="JnaWuEPb16IbHwwAd0XI-454" value="12" style="whiteSpace=wrap;html=1;aspect=fixed;fillColor=#dae8fc;strokeColor=#6c8ebf;" vertex="1" parent="47DsXtGxRaOM0_qZ-0rH-1">
          <mxGeometry x="250" y="610" width="30" height="30" as="geometry" />
        </mxCell>
        <mxCell id="JnaWuEPb16IbHwwAd0XI-455" value="14" style="whiteSpace=wrap;html=1;aspect=fixed;fillColor=#dae8fc;strokeColor=#6c8ebf;" vertex="1" parent="47DsXtGxRaOM0_qZ-0rH-1">
          <mxGeometry x="170" y="650" width="30" height="30" as="geometry" />
        </mxCell>
        <mxCell id="JnaWuEPb16IbHwwAd0XI-456" value="16" style="whiteSpace=wrap;html=1;aspect=fixed;fillColor=#dae8fc;strokeColor=#6c8ebf;" vertex="1" parent="47DsXtGxRaOM0_qZ-0rH-1">
          <mxGeometry x="250" y="650" width="30" height="30" as="geometry" />
        </mxCell>
        <mxCell id="JnaWuEPb16IbHwwAd0XI-458" value="" style="endArrow=none;dashed=1;html=1;dashPattern=1 3;strokeWidth=2;align=center;verticalAlign=top;" edge="1" parent="47DsXtGxRaOM0_qZ-0rH-1">
          <mxGeometry width="50" height="50" relative="1" as="geometry">
            <mxPoint x="1080" y="690" as="sourcePoint" />
            <mxPoint x="1080" y="500" as="targetPoint" />
          </mxGeometry>
        </mxCell>
        <mxCell id="JnaWuEPb16IbHwwAd0XI-460" value="" style="endArrow=none;dashed=1;html=1;dashPattern=1 3;strokeWidth=2;align=center;verticalAlign=top;" edge="1" parent="47DsXtGxRaOM0_qZ-0rH-1">
          <mxGeometry width="50" height="50" relative="1" as="geometry">
            <mxPoint x="1250" y="690" as="sourcePoint" />
            <mxPoint x="1250" y="500" as="targetPoint" />
          </mxGeometry>
        </mxCell>
        <mxCell id="JnaWuEPb16IbHwwAd0XI-462" value="" style="endArrow=none;dashed=1;html=1;dashPattern=1 3;strokeWidth=2;align=center;verticalAlign=top;" edge="1" parent="47DsXtGxRaOM0_qZ-0rH-1">
          <mxGeometry width="50" height="50" relative="1" as="geometry">
            <mxPoint x="1420" y="690" as="sourcePoint" />
            <mxPoint x="1420" y="500" as="targetPoint" />
          </mxGeometry>
        </mxCell>
        <mxCell id="JnaWuEPb16IbHwwAd0XI-464" value="&lt;i&gt;sample_rate = 1&lt;/i&gt;" style="text;html=1;strokeColor=none;fillColor=none;align=center;verticalAlign=middle;whiteSpace=wrap;rounded=0;" vertex="1" parent="47DsXtGxRaOM0_qZ-0rH-1">
          <mxGeometry x="950" y="506" width="90" height="20" as="geometry" />
        </mxCell>
        <mxCell id="JnaWuEPb16IbHwwAd0XI-465" value="&lt;i&gt;sample_rate = 0.5&lt;/i&gt;" style="text;html=1;strokeColor=none;fillColor=none;align=center;verticalAlign=middle;whiteSpace=wrap;rounded=0;" vertex="1" parent="47DsXtGxRaOM0_qZ-0rH-1">
          <mxGeometry x="1115" y="506" width="100" height="20" as="geometry" />
        </mxCell>
        <mxCell id="JnaWuEPb16IbHwwAd0XI-466" value="&lt;i&gt;sample_rate = 0.1&lt;/i&gt;" style="text;html=1;strokeColor=none;fillColor=none;align=center;verticalAlign=middle;whiteSpace=wrap;rounded=0;" vertex="1" parent="47DsXtGxRaOM0_qZ-0rH-1">
          <mxGeometry x="1285" y="506" width="100" height="20" as="geometry" />
        </mxCell>
        <mxCell id="JnaWuEPb16IbHwwAd0XI-467" value="&lt;i&gt;sample_rate = 1&lt;/i&gt;" style="text;html=1;strokeColor=none;fillColor=none;align=center;verticalAlign=middle;whiteSpace=wrap;rounded=0;" vertex="1" parent="47DsXtGxRaOM0_qZ-0rH-1">
          <mxGeometry x="1455" y="506" width="100" height="20" as="geometry" />
        </mxCell>
        <mxCell id="JnaWuEPb16IbHwwAd0XI-468" value="3" style="whiteSpace=wrap;html=1;aspect=fixed;fillColor=#dae8fc;strokeColor=#6c8ebf;" vertex="1" parent="47DsXtGxRaOM0_qZ-0rH-1">
          <mxGeometry x="210" y="530" width="30" height="30" as="geometry" />
        </mxCell>
        <mxCell id="JnaWuEPb16IbHwwAd0XI-469" value="6" style="whiteSpace=wrap;html=1;aspect=fixed;fillColor=#dae8fc;strokeColor=#6c8ebf;" vertex="1" parent="47DsXtGxRaOM0_qZ-0rH-1">
          <mxGeometry x="170" y="570" width="30" height="30" as="geometry" />
        </mxCell>
        <mxCell id="JnaWuEPb16IbHwwAd0XI-470" value="13" style="whiteSpace=wrap;html=1;aspect=fixed;fillColor=#dae8fc;strokeColor=#6c8ebf;" vertex="1" parent="47DsXtGxRaOM0_qZ-0rH-1">
          <mxGeometry x="130" y="650" width="30" height="30" as="geometry" />
        </mxCell>
        <mxCell id="JnaWuEPb16IbHwwAd0XI-471" value="15" style="whiteSpace=wrap;html=1;aspect=fixed;fillColor=#dae8fc;strokeColor=#6c8ebf;" vertex="1" parent="47DsXtGxRaOM0_qZ-0rH-1">
          <mxGeometry x="210" y="650" width="30" height="30" as="geometry" />
        </mxCell>
        <mxCell id="JnaWuEPb16IbHwwAd0XI-478" value="1" style="whiteSpace=wrap;html=1;aspect=fixed;fillColor=#dae8fc;strokeColor=#6c8ebf;" vertex="1" parent="47DsXtGxRaOM0_qZ-0rH-1">
          <mxGeometry x="640" y="570" width="30" height="30" as="geometry" />
        </mxCell>
        <mxCell id="JnaWuEPb16IbHwwAd0XI-479" value="1" style="whiteSpace=wrap;html=1;aspect=fixed;fillColor=#dae8fc;strokeColor=#6c8ebf;" vertex="1" parent="47DsXtGxRaOM0_qZ-0rH-1">
          <mxGeometry x="680" y="530" width="30" height="30" as="geometry" />
        </mxCell>
        <mxCell id="JnaWuEPb16IbHwwAd0XI-480" value="1" style="whiteSpace=wrap;html=1;aspect=fixed;fillColor=#dae8fc;strokeColor=#6c8ebf;" vertex="1" parent="47DsXtGxRaOM0_qZ-0rH-1">
          <mxGeometry x="680" y="610" width="30" height="30" as="geometry" />
        </mxCell>
        <mxCell id="JnaWuEPb16IbHwwAd0XI-481" value="1" style="whiteSpace=wrap;html=1;aspect=fixed;fillColor=#dae8fc;strokeColor=#6c8ebf;" vertex="1" parent="47DsXtGxRaOM0_qZ-0rH-1">
          <mxGeometry x="720" y="570" width="30" height="30" as="geometry" />
        </mxCell>
        <mxCell id="JnaWuEPb16IbHwwAd0XI-482" value="13" style="whiteSpace=wrap;html=1;aspect=fixed;fillColor=#dae8fc;strokeColor=#6c8ebf;" vertex="1" parent="47DsXtGxRaOM0_qZ-0rH-1">
          <mxGeometry x="720" y="650" width="30" height="30" as="geometry" />
        </mxCell>
        <mxCell id="JnaWuEPb16IbHwwAd0XI-483" value="2" style="whiteSpace=wrap;html=1;aspect=fixed;fillColor=#dae8fc;strokeColor=#6c8ebf;" vertex="1" parent="47DsXtGxRaOM0_qZ-0rH-1">
          <mxGeometry x="760" y="610" width="30" height="30" as="geometry" />
        </mxCell>
        <mxCell id="JnaWuEPb16IbHwwAd0XI-484" value="&lt;font style=&quot;font-size: 18px&quot;&gt;13:40:00&lt;/font&gt;" style="text;html=1;strokeColor=none;fillColor=none;align=center;verticalAlign=middle;whiteSpace=wrap;rounded=0;" vertex="1" parent="47DsXtGxRaOM0_qZ-0rH-1">
          <mxGeometry x="90" y="470" width="60" height="20" as="geometry" />
        </mxCell>
        <mxCell id="JnaWuEPb16IbHwwAd0XI-486" value="&lt;font style=&quot;font-size: 18px&quot;&gt;13:45:00&lt;/font&gt;" style="text;html=1;strokeColor=none;fillColor=none;align=center;verticalAlign=middle;whiteSpace=wrap;rounded=0;" vertex="1" parent="47DsXtGxRaOM0_qZ-0rH-1">
          <mxGeometry x="260" y="470" width="60" height="20" as="geometry" />
        </mxCell>
        <mxCell id="JnaWuEPb16IbHwwAd0XI-487" value="&lt;font style=&quot;font-size: 18px&quot;&gt;13:50:00&lt;/font&gt;" style="text;html=1;strokeColor=none;fillColor=none;align=center;verticalAlign=middle;whiteSpace=wrap;rounded=0;" vertex="1" parent="47DsXtGxRaOM0_qZ-0rH-1">
          <mxGeometry x="430" y="470" width="60" height="20" as="geometry" />
        </mxCell>
        <mxCell id="JnaWuEPb16IbHwwAd0XI-488" value="&lt;font style=&quot;font-size: 18px&quot;&gt;13:55:00&lt;/font&gt;" style="text;html=1;strokeColor=none;fillColor=none;align=center;verticalAlign=middle;whiteSpace=wrap;rounded=0;" vertex="1" parent="47DsXtGxRaOM0_qZ-0rH-1">
          <mxGeometry x="600" y="470" width="60" height="20" as="geometry" />
        </mxCell>
        <mxCell id="JnaWuEPb16IbHwwAd0XI-489" value="&lt;font style=&quot;font-size: 18px&quot;&gt;13:45:00&lt;/font&gt;" style="text;html=1;strokeColor=none;fillColor=none;align=center;verticalAlign=middle;whiteSpace=wrap;rounded=0;" vertex="1" parent="47DsXtGxRaOM0_qZ-0rH-1">
          <mxGeometry x="1050" y="470" width="60" height="20" as="geometry" />
        </mxCell>
        <mxCell id="JnaWuEPb16IbHwwAd0XI-490" value="&lt;font style=&quot;font-size: 18px&quot;&gt;13:50:00&lt;/font&gt;" style="text;html=1;strokeColor=none;fillColor=none;align=center;verticalAlign=middle;whiteSpace=wrap;rounded=0;" vertex="1" parent="47DsXtGxRaOM0_qZ-0rH-1">
          <mxGeometry x="1220" y="470" width="60" height="20" as="geometry" />
        </mxCell>
        <mxCell id="JnaWuEPb16IbHwwAd0XI-491" value="&lt;font style=&quot;font-size: 18px&quot;&gt;13:55:00&lt;/font&gt;" style="text;html=1;strokeColor=none;fillColor=none;align=center;verticalAlign=middle;whiteSpace=wrap;rounded=0;" vertex="1" parent="47DsXtGxRaOM0_qZ-0rH-1">
          <mxGeometry x="1390" y="470" width="60" height="20" as="geometry" />
        </mxCell>
        <mxCell id="JnaWuEPb16IbHwwAd0XI-492" value="&lt;font style=&quot;font-size: 18px&quot;&gt;14:00:00&lt;/font&gt;" style="text;html=1;strokeColor=none;fillColor=none;align=center;verticalAlign=middle;whiteSpace=wrap;rounded=0;" vertex="1" parent="47DsXtGxRaOM0_qZ-0rH-1">
          <mxGeometry x="1560" y="470" width="60" height="20" as="geometry" />
        </mxCell>
        <mxCell id="JnaWuEPb16IbHwwAd0XI-493" value="" style="endArrow=none;dashed=1;html=1;dashPattern=1 3;strokeWidth=2;align=center;verticalAlign=top;" edge="1" parent="47DsXtGxRaOM0_qZ-0rH-1">
          <mxGeometry width="50" height="50" relative="1" as="geometry">
            <mxPoint x="1590" y="690" as="sourcePoint" />
            <mxPoint x="1590" y="500" as="targetPoint" />
          </mxGeometry>
        </mxCell>
        <mxCell id="JnaWuEPb16IbHwwAd0XI-494" value="&lt;font style=&quot;font-size: 18px&quot;&gt;13:40:00&lt;/font&gt;" style="text;html=1;strokeColor=none;fillColor=none;align=center;verticalAlign=middle;whiteSpace=wrap;rounded=0;" vertex="1" parent="47DsXtGxRaOM0_qZ-0rH-1">
          <mxGeometry x="90" y="152" width="60" height="20" as="geometry" />
        </mxCell>
        <mxCell id="JnaWuEPb16IbHwwAd0XI-495" value="&lt;font style=&quot;font-size: 18px&quot;&gt;13:45:00&lt;/font&gt;" style="text;html=1;strokeColor=none;fillColor=none;align=center;verticalAlign=middle;whiteSpace=wrap;rounded=0;" vertex="1" parent="47DsXtGxRaOM0_qZ-0rH-1">
          <mxGeometry x="260" y="152" width="60" height="20" as="geometry" />
        </mxCell>
        <mxCell id="JnaWuEPb16IbHwwAd0XI-496" value="&lt;font style=&quot;font-size: 18px&quot;&gt;13:50:00&lt;/font&gt;" style="text;html=1;strokeColor=none;fillColor=none;align=center;verticalAlign=middle;whiteSpace=wrap;rounded=0;" vertex="1" parent="47DsXtGxRaOM0_qZ-0rH-1">
          <mxGeometry x="430" y="152" width="60" height="20" as="geometry" />
        </mxCell>
        <mxCell id="JnaWuEPb16IbHwwAd0XI-497" value="&lt;font style=&quot;font-size: 18px&quot;&gt;13:55:00&lt;/font&gt;" style="text;html=1;strokeColor=none;fillColor=none;align=center;verticalAlign=middle;whiteSpace=wrap;rounded=0;" vertex="1" parent="47DsXtGxRaOM0_qZ-0rH-1">
          <mxGeometry x="600" y="152" width="60" height="20" as="geometry" />
        </mxCell>
        <mxCell id="JnaWuEPb16IbHwwAd0XI-498" value="&lt;font style=&quot;font-size: 18px&quot;&gt;13:45:00&lt;/font&gt;" style="text;html=1;strokeColor=none;fillColor=none;align=center;verticalAlign=middle;whiteSpace=wrap;rounded=0;" vertex="1" parent="47DsXtGxRaOM0_qZ-0rH-1">
          <mxGeometry x="1050" y="152" width="60" height="20" as="geometry" />
        </mxCell>
        <mxCell id="JnaWuEPb16IbHwwAd0XI-499" value="&lt;font style=&quot;font-size: 18px&quot;&gt;13:50:00&lt;/font&gt;" style="text;html=1;strokeColor=none;fillColor=none;align=center;verticalAlign=middle;whiteSpace=wrap;rounded=0;" vertex="1" parent="47DsXtGxRaOM0_qZ-0rH-1">
          <mxGeometry x="1220" y="152" width="60" height="20" as="geometry" />
        </mxCell>
        <mxCell id="JnaWuEPb16IbHwwAd0XI-500" value="&lt;font style=&quot;font-size: 18px&quot;&gt;13:55:00&lt;/font&gt;" style="text;html=1;strokeColor=none;fillColor=none;align=center;verticalAlign=middle;whiteSpace=wrap;rounded=0;" vertex="1" parent="47DsXtGxRaOM0_qZ-0rH-1">
          <mxGeometry x="1390" y="152" width="60" height="20" as="geometry" />
        </mxCell>
        <mxCell id="JnaWuEPb16IbHwwAd0XI-501" value="&lt;font style=&quot;font-size: 18px&quot;&gt;14:00:00&lt;/font&gt;" style="text;html=1;strokeColor=none;fillColor=none;align=center;verticalAlign=middle;whiteSpace=wrap;rounded=0;" vertex="1" parent="47DsXtGxRaOM0_qZ-0rH-1">
          <mxGeometry x="1560" y="152" width="60" height="20" as="geometry" />
        </mxCell>
        <mxCell id="JnaWuEPb16IbHwwAd0XI-598" value="1" style="whiteSpace=wrap;html=1;aspect=fixed;fillColor=#dae8fc;strokeColor=#6c8ebf;" vertex="1" parent="47DsXtGxRaOM0_qZ-0rH-1">
          <mxGeometry x="300" y="530" width="30" height="30" as="geometry" />
        </mxCell>
        <mxCell id="JnaWuEPb16IbHwwAd0XI-599" value="2" style="whiteSpace=wrap;html=1;aspect=fixed;fillColor=#dae8fc;strokeColor=#6c8ebf;" vertex="1" parent="47DsXtGxRaOM0_qZ-0rH-1">
          <mxGeometry x="340" y="530" width="30" height="30" as="geometry" />
        </mxCell>
        <mxCell id="JnaWuEPb16IbHwwAd0XI-600" value="4" style="whiteSpace=wrap;html=1;aspect=fixed;fillColor=#dae8fc;strokeColor=#6c8ebf;" vertex="1" parent="47DsXtGxRaOM0_qZ-0rH-1">
          <mxGeometry x="420" y="530" width="30" height="30" as="geometry" />
        </mxCell>
        <mxCell id="JnaWuEPb16IbHwwAd0XI-601" value="5" style="whiteSpace=wrap;html=1;aspect=fixed;fillColor=#dae8fc;strokeColor=#6c8ebf;" vertex="1" parent="47DsXtGxRaOM0_qZ-0rH-1">
          <mxGeometry x="300" y="570" width="30" height="30" as="geometry" />
        </mxCell>
        <mxCell id="JnaWuEPb16IbHwwAd0XI-602" value="7" style="whiteSpace=wrap;html=1;aspect=fixed;fillColor=#dae8fc;strokeColor=#6c8ebf;" vertex="1" parent="47DsXtGxRaOM0_qZ-0rH-1">
          <mxGeometry x="380" y="570" width="30" height="30" as="geometry" />
        </mxCell>
        <mxCell id="JnaWuEPb16IbHwwAd0XI-603" value="8" style="whiteSpace=wrap;html=1;aspect=fixed;fillColor=#dae8fc;strokeColor=#6c8ebf;" vertex="1" parent="47DsXtGxRaOM0_qZ-0rH-1">
          <mxGeometry x="420" y="570" width="30" height="30" as="geometry" />
        </mxCell>
        <mxCell id="JnaWuEPb16IbHwwAd0XI-604" value="9" style="whiteSpace=wrap;html=1;aspect=fixed;fillColor=#dae8fc;strokeColor=#6c8ebf;" vertex="1" parent="47DsXtGxRaOM0_qZ-0rH-1">
          <mxGeometry x="300" y="610" width="30" height="30" as="geometry" />
        </mxCell>
        <mxCell id="JnaWuEPb16IbHwwAd0XI-605" value="10" style="whiteSpace=wrap;html=1;aspect=fixed;fillColor=#dae8fc;strokeColor=#6c8ebf;" vertex="1" parent="47DsXtGxRaOM0_qZ-0rH-1">
          <mxGeometry x="340" y="610" width="30" height="30" as="geometry" />
        </mxCell>
        <mxCell id="JnaWuEPb16IbHwwAd0XI-606" value="11" style="whiteSpace=wrap;html=1;aspect=fixed;fillColor=#dae8fc;strokeColor=#6c8ebf;" vertex="1" parent="47DsXtGxRaOM0_qZ-0rH-1">
          <mxGeometry x="380" y="610" width="30" height="30" as="geometry" />
        </mxCell>
        <mxCell id="JnaWuEPb16IbHwwAd0XI-607" value="12" style="whiteSpace=wrap;html=1;aspect=fixed;fillColor=#dae8fc;strokeColor=#6c8ebf;" vertex="1" parent="47DsXtGxRaOM0_qZ-0rH-1">
          <mxGeometry x="420" y="610" width="30" height="30" as="geometry" />
        </mxCell>
        <mxCell id="JnaWuEPb16IbHwwAd0XI-608" value="14" style="whiteSpace=wrap;html=1;aspect=fixed;fillColor=#dae8fc;strokeColor=#6c8ebf;" vertex="1" parent="47DsXtGxRaOM0_qZ-0rH-1">
          <mxGeometry x="340" y="650" width="30" height="30" as="geometry" />
        </mxCell>
        <mxCell id="JnaWuEPb16IbHwwAd0XI-609" value="16" style="whiteSpace=wrap;html=1;aspect=fixed;fillColor=#dae8fc;strokeColor=#6c8ebf;" vertex="1" parent="47DsXtGxRaOM0_qZ-0rH-1">
          <mxGeometry x="420" y="650" width="30" height="30" as="geometry" />
        </mxCell>
        <mxCell id="JnaWuEPb16IbHwwAd0XI-610" value="3" style="whiteSpace=wrap;html=1;aspect=fixed;fillColor=#dae8fc;strokeColor=#6c8ebf;" vertex="1" parent="47DsXtGxRaOM0_qZ-0rH-1">
          <mxGeometry x="380" y="530" width="30" height="30" as="geometry" />
        </mxCell>
        <mxCell id="JnaWuEPb16IbHwwAd0XI-611" value="6" style="whiteSpace=wrap;html=1;aspect=fixed;fillColor=#dae8fc;strokeColor=#6c8ebf;" vertex="1" parent="47DsXtGxRaOM0_qZ-0rH-1">
          <mxGeometry x="340" y="570" width="30" height="30" as="geometry" />
        </mxCell>
        <mxCell id="JnaWuEPb16IbHwwAd0XI-612" value="13" style="whiteSpace=wrap;html=1;aspect=fixed;fillColor=#dae8fc;strokeColor=#6c8ebf;" vertex="1" parent="47DsXtGxRaOM0_qZ-0rH-1">
          <mxGeometry x="300" y="650" width="30" height="30" as="geometry" />
        </mxCell>
        <mxCell id="JnaWuEPb16IbHwwAd0XI-613" value="15" style="whiteSpace=wrap;html=1;aspect=fixed;fillColor=#dae8fc;strokeColor=#6c8ebf;" vertex="1" parent="47DsXtGxRaOM0_qZ-0rH-1">
          <mxGeometry x="380" y="650" width="30" height="30" as="geometry" />
        </mxCell>
        <mxCell id="JnaWuEPb16IbHwwAd0XI-614" value="1" style="whiteSpace=wrap;html=1;aspect=fixed;fillColor=#dae8fc;strokeColor=#6c8ebf;" vertex="1" parent="47DsXtGxRaOM0_qZ-0rH-1">
          <mxGeometry x="470" y="530" width="30" height="30" as="geometry" />
        </mxCell>
        <mxCell id="JnaWuEPb16IbHwwAd0XI-615" value="2" style="whiteSpace=wrap;html=1;aspect=fixed;fillColor=#dae8fc;strokeColor=#6c8ebf;" vertex="1" parent="47DsXtGxRaOM0_qZ-0rH-1">
          <mxGeometry x="510" y="530" width="30" height="30" as="geometry" />
        </mxCell>
        <mxCell id="JnaWuEPb16IbHwwAd0XI-616" value="4" style="whiteSpace=wrap;html=1;aspect=fixed;fillColor=#dae8fc;strokeColor=#6c8ebf;" vertex="1" parent="47DsXtGxRaOM0_qZ-0rH-1">
          <mxGeometry x="590" y="530" width="30" height="30" as="geometry" />
        </mxCell>
        <mxCell id="JnaWuEPb16IbHwwAd0XI-617" value="5" style="whiteSpace=wrap;html=1;aspect=fixed;fillColor=#dae8fc;strokeColor=#6c8ebf;" vertex="1" parent="47DsXtGxRaOM0_qZ-0rH-1">
          <mxGeometry x="470" y="570" width="30" height="30" as="geometry" />
        </mxCell>
        <mxCell id="JnaWuEPb16IbHwwAd0XI-618" value="7" style="whiteSpace=wrap;html=1;aspect=fixed;fillColor=#dae8fc;strokeColor=#6c8ebf;" vertex="1" parent="47DsXtGxRaOM0_qZ-0rH-1">
          <mxGeometry x="550" y="570" width="30" height="30" as="geometry" />
        </mxCell>
        <mxCell id="JnaWuEPb16IbHwwAd0XI-619" value="8" style="whiteSpace=wrap;html=1;aspect=fixed;fillColor=#dae8fc;strokeColor=#6c8ebf;" vertex="1" parent="47DsXtGxRaOM0_qZ-0rH-1">
          <mxGeometry x="590" y="570" width="30" height="30" as="geometry" />
        </mxCell>
        <mxCell id="JnaWuEPb16IbHwwAd0XI-620" value="9" style="whiteSpace=wrap;html=1;aspect=fixed;fillColor=#dae8fc;strokeColor=#6c8ebf;" vertex="1" parent="47DsXtGxRaOM0_qZ-0rH-1">
          <mxGeometry x="470" y="610" width="30" height="30" as="geometry" />
        </mxCell>
        <mxCell id="JnaWuEPb16IbHwwAd0XI-621" value="10" style="whiteSpace=wrap;html=1;aspect=fixed;fillColor=#dae8fc;strokeColor=#6c8ebf;" vertex="1" parent="47DsXtGxRaOM0_qZ-0rH-1">
          <mxGeometry x="510" y="610" width="30" height="30" as="geometry" />
        </mxCell>
        <mxCell id="JnaWuEPb16IbHwwAd0XI-622" value="11" style="whiteSpace=wrap;html=1;aspect=fixed;fillColor=#dae8fc;strokeColor=#6c8ebf;" vertex="1" parent="47DsXtGxRaOM0_qZ-0rH-1">
          <mxGeometry x="550" y="610" width="30" height="30" as="geometry" />
        </mxCell>
        <mxCell id="JnaWuEPb16IbHwwAd0XI-623" value="12" style="whiteSpace=wrap;html=1;aspect=fixed;fillColor=#dae8fc;strokeColor=#6c8ebf;" vertex="1" parent="47DsXtGxRaOM0_qZ-0rH-1">
          <mxGeometry x="590" y="610" width="30" height="30" as="geometry" />
        </mxCell>
        <mxCell id="JnaWuEPb16IbHwwAd0XI-624" value="14" style="whiteSpace=wrap;html=1;aspect=fixed;fillColor=#dae8fc;strokeColor=#6c8ebf;" vertex="1" parent="47DsXtGxRaOM0_qZ-0rH-1">
          <mxGeometry x="510" y="650" width="30" height="30" as="geometry" />
        </mxCell>
        <mxCell id="JnaWuEPb16IbHwwAd0XI-625" value="16" style="whiteSpace=wrap;html=1;aspect=fixed;fillColor=#dae8fc;strokeColor=#6c8ebf;" vertex="1" parent="47DsXtGxRaOM0_qZ-0rH-1">
          <mxGeometry x="590" y="650" width="30" height="30" as="geometry" />
        </mxCell>
        <mxCell id="JnaWuEPb16IbHwwAd0XI-626" value="3" style="whiteSpace=wrap;html=1;aspect=fixed;fillColor=#dae8fc;strokeColor=#6c8ebf;" vertex="1" parent="47DsXtGxRaOM0_qZ-0rH-1">
          <mxGeometry x="550" y="530" width="30" height="30" as="geometry" />
        </mxCell>
        <mxCell id="JnaWuEPb16IbHwwAd0XI-627" value="6" style="whiteSpace=wrap;html=1;aspect=fixed;fillColor=#dae8fc;strokeColor=#6c8ebf;" vertex="1" parent="47DsXtGxRaOM0_qZ-0rH-1">
          <mxGeometry x="510" y="570" width="30" height="30" as="geometry" />
        </mxCell>
        <mxCell id="JnaWuEPb16IbHwwAd0XI-628" value="13" style="whiteSpace=wrap;html=1;aspect=fixed;fillColor=#dae8fc;strokeColor=#6c8ebf;" vertex="1" parent="47DsXtGxRaOM0_qZ-0rH-1">
          <mxGeometry x="470" y="650" width="30" height="30" as="geometry" />
        </mxCell>
        <mxCell id="JnaWuEPb16IbHwwAd0XI-629" value="15" style="whiteSpace=wrap;html=1;aspect=fixed;fillColor=#dae8fc;strokeColor=#6c8ebf;" vertex="1" parent="47DsXtGxRaOM0_qZ-0rH-1">
          <mxGeometry x="550" y="650" width="30" height="30" as="geometry" />
        </mxCell>
        <mxCell id="JnaWuEPb16IbHwwAd0XI-631" value="lower_90 = 1" style="rounded=0;whiteSpace=wrap;html=1;verticalAlign=middle;fillColor=#f5f5f5;strokeColor=#666666;fontColor=#333333;" vertex="1" parent="47DsXtGxRaOM0_qZ-0rH-1">
          <mxGeometry x="920" y="530" width="150" height="30" as="geometry" />
        </mxCell>
        <mxCell id="JnaWuEPb16IbHwwAd0XI-632" value="upper_90 = 15" style="rounded=0;whiteSpace=wrap;html=1;verticalAlign=middle;fillColor=#f5f5f5;strokeColor=#666666;fontColor=#333333;" vertex="1" parent="47DsXtGxRaOM0_qZ-0rH-1">
          <mxGeometry x="920" y="570" width="150" height="30" as="geometry" />
        </mxCell>
        <mxCell id="JnaWuEPb16IbHwwAd0XI-634" value="sum_90 = 136" style="rounded=0;whiteSpace=wrap;html=1;verticalAlign=middle;fillColor=#f5f5f5;strokeColor=#666666;fontColor=#333333;" vertex="1" parent="47DsXtGxRaOM0_qZ-0rH-1">
          <mxGeometry x="920" y="610" width="150" height="30" as="geometry" />
        </mxCell>
        <mxCell id="JnaWuEPb16IbHwwAd0XI-635" value="mean_90 = 136/15 = 9.07" style="rounded=0;whiteSpace=wrap;html=1;verticalAlign=middle;fillColor=#f5f5f5;strokeColor=#666666;fontColor=#333333;" vertex="1" parent="47DsXtGxRaOM0_qZ-0rH-1">
          <mxGeometry x="920" y="650" width="150" height="30" as="geometry" />
        </mxCell>
        <mxCell id="JnaWuEPb16IbHwwAd0XI-636" value="lower_90 = 2" style="rounded=0;whiteSpace=wrap;html=1;verticalAlign=middle;fillColor=#f5f5f5;strokeColor=#666666;fontColor=#333333;" vertex="1" parent="47DsXtGxRaOM0_qZ-0rH-1">
          <mxGeometry x="1090" y="530" width="150" height="30" as="geometry" />
        </mxCell>
        <mxCell id="JnaWuEPb16IbHwwAd0XI-637" value="upper_90 = 30" style="rounded=0;whiteSpace=wrap;html=1;verticalAlign=middle;fillColor=#f5f5f5;strokeColor=#666666;fontColor=#333333;" vertex="1" parent="47DsXtGxRaOM0_qZ-0rH-1">
          <mxGeometry x="1090" y="570" width="150" height="30" as="geometry" />
        </mxCell>
        <mxCell id="JnaWuEPb16IbHwwAd0XI-638" value="sum_90 = 272" style="rounded=0;whiteSpace=wrap;html=1;verticalAlign=middle;fillColor=#f5f5f5;strokeColor=#666666;fontColor=#333333;" vertex="1" parent="47DsXtGxRaOM0_qZ-0rH-1">
          <mxGeometry x="1090" y="610" width="150" height="30" as="geometry" />
        </mxCell>
        <mxCell id="JnaWuEPb16IbHwwAd0XI-639" value="mean_90 = 18.13" style="rounded=0;whiteSpace=wrap;html=1;verticalAlign=middle;fillColor=#f5f5f5;strokeColor=#666666;fontColor=#333333;" vertex="1" parent="47DsXtGxRaOM0_qZ-0rH-1">
          <mxGeometry x="1090" y="650" width="150" height="30" as="geometry" />
        </mxCell>
        <mxCell id="JnaWuEPb16IbHwwAd0XI-640" value="lower_90 = 10" style="rounded=0;whiteSpace=wrap;html=1;verticalAlign=middle;fillColor=#f5f5f5;strokeColor=#666666;fontColor=#333333;" vertex="1" parent="47DsXtGxRaOM0_qZ-0rH-1">
          <mxGeometry x="1260" y="530" width="150" height="30" as="geometry" />
        </mxCell>
        <mxCell id="JnaWuEPb16IbHwwAd0XI-641" value="upper_90 = 150" style="rounded=0;whiteSpace=wrap;html=1;verticalAlign=middle;fillColor=#f5f5f5;strokeColor=#666666;fontColor=#333333;" vertex="1" parent="47DsXtGxRaOM0_qZ-0rH-1">
          <mxGeometry x="1260" y="570" width="150" height="30" as="geometry" />
        </mxCell>
        <mxCell id="JnaWuEPb16IbHwwAd0XI-642" value="sum_90 = 1360" style="rounded=0;whiteSpace=wrap;html=1;verticalAlign=middle;fillColor=#f5f5f5;strokeColor=#666666;fontColor=#333333;" vertex="1" parent="47DsXtGxRaOM0_qZ-0rH-1">
          <mxGeometry x="1260" y="610" width="150" height="30" as="geometry" />
        </mxCell>
        <mxCell id="JnaWuEPb16IbHwwAd0XI-643" value="mean_90 = 90.67" style="rounded=0;whiteSpace=wrap;html=1;verticalAlign=middle;fillColor=#f5f5f5;strokeColor=#666666;fontColor=#333333;" vertex="1" parent="47DsXtGxRaOM0_qZ-0rH-1">
          <mxGeometry x="1260" y="650" width="150" height="30" as="geometry" />
        </mxCell>
        <mxCell id="JnaWuEPb16IbHwwAd0XI-644" value="lower_90 = 1" style="rounded=0;whiteSpace=wrap;html=1;verticalAlign=middle;fillColor=#f5f5f5;strokeColor=#666666;fontColor=#333333;" vertex="1" parent="47DsXtGxRaOM0_qZ-0rH-1">
          <mxGeometry x="1430" y="530" width="150" height="30" as="geometry" />
        </mxCell>
        <mxCell id="JnaWuEPb16IbHwwAd0XI-645" value="upper_90 = 13" style="rounded=0;whiteSpace=wrap;html=1;verticalAlign=middle;fillColor=#f5f5f5;strokeColor=#666666;fontColor=#333333;" vertex="1" parent="47DsXtGxRaOM0_qZ-0rH-1">
          <mxGeometry x="1430" y="570" width="150" height="30" as="geometry" />
        </mxCell>
        <mxCell id="JnaWuEPb16IbHwwAd0XI-646" value="sum_90 = 71" style="rounded=0;whiteSpace=wrap;html=1;verticalAlign=middle;fillColor=#f5f5f5;strokeColor=#666666;fontColor=#333333;" vertex="1" parent="47DsXtGxRaOM0_qZ-0rH-1">
          <mxGeometry x="1430" y="610" width="150" height="30" as="geometry" />
        </mxCell>
        <mxCell id="JnaWuEPb16IbHwwAd0XI-647" value="mean_90 = 71/15 = 4.73" style="rounded=0;whiteSpace=wrap;html=1;verticalAlign=middle;fillColor=#f5f5f5;strokeColor=#666666;fontColor=#333333;" vertex="1" parent="47DsXtGxRaOM0_qZ-0rH-1">
          <mxGeometry x="1430" y="650" width="150" height="30" as="geometry" />
        </mxCell>
        <mxCell id="zAzbHPiUGDcnRX3qbQyj-234" value="" style="endArrow=none;dashed=1;html=1;dashPattern=1 3;strokeWidth=2;align=center;verticalAlign=top;" edge="1" parent="47DsXtGxRaOM0_qZ-0rH-1">
          <mxGeometry width="50" height="50" relative="1" as="geometry">
            <mxPoint x="1589.58" y="369.9999999999999" as="sourcePoint" />
            <mxPoint x="1589.58" y="180" as="targetPoint" />
          </mxGeometry>
        </mxCell>
        <mxCell id="zAzbHPiUGDcnRX3qbQyj-236" value="&lt;font style=&quot;font-size: 24px&quot;&gt;echo &quot;system.load.1min:0.5|c|@0.2&quot; | nc --wait 1 --udp 127.0.0.1 8125&lt;br&gt;&lt;br&gt;echo &quot;system.load.1min:0.5|ms&quot; | nc --wait 1 --udp 127.0.0.1 8125&lt;br&gt;&lt;br&gt;echo &quot;system.load.1min:0.5|g&quot; | nc --wait 1 --udp 127.0.0.1 8125&lt;br&gt;&lt;br&gt;echo &quot;system.load.1min:0.5|s&quot; | nc --wait 1 --udp 127.0.0.1 8125&lt;br&gt;&lt;/font&gt;" style="text;html=1;strokeColor=none;fillColor=none;align=left;verticalAlign=middle;whiteSpace=wrap;rounded=0;" vertex="1" parent="47DsXtGxRaOM0_qZ-0rH-1">
          <mxGeometry x="140" y="770" width="810" height="210" as="geometry" />
        </mxCell>
      </root>
    </mxGraphModel>
  </diagram>
  <diagram id="MrarzZ3b05W3KyTQTHuu" name="Others">
    <mxGraphModel dx="2966" dy="1643" grid="0" gridSize="10" guides="1" tooltips="1" connect="1" arrows="1" fold="1" page="1" pageScale="1" pageWidth="3300" pageHeight="4681" math="0" shadow="0">
      <root>
        <mxCell id="49K2uPlCXV8xB_S1V8Xm-0" />
        <mxCell id="49K2uPlCXV8xB_S1V8Xm-1" parent="49K2uPlCXV8xB_S1V8Xm-0" />
        <mxCell id="49K2uPlCXV8xB_S1V8Xm-2" value="" style="ellipse;whiteSpace=wrap;html=1;aspect=fixed;fillColor=none;" parent="49K2uPlCXV8xB_S1V8Xm-1" vertex="1">
          <mxGeometry x="680" y="320" width="240" height="240" as="geometry" />
        </mxCell>
        <mxCell id="49K2uPlCXV8xB_S1V8Xm-3" value="" style="ellipse;whiteSpace=wrap;html=1;aspect=fixed;fillColor=none;" parent="49K2uPlCXV8xB_S1V8Xm-1" vertex="1">
          <mxGeometry x="715" y="355" width="170" height="170" as="geometry" />
        </mxCell>
        <mxCell id="49K2uPlCXV8xB_S1V8Xm-4" value="" style="endArrow=none;html=1;exitX=0.5;exitY=0;exitDx=0;exitDy=0;" parent="49K2uPlCXV8xB_S1V8Xm-1" source="49K2uPlCXV8xB_S1V8Xm-3" edge="1">
          <mxGeometry width="50" height="50" relative="1" as="geometry">
            <mxPoint x="780" y="420" as="sourcePoint" />
            <mxPoint x="800" y="320" as="targetPoint" />
          </mxGeometry>
        </mxCell>
        <mxCell id="49K2uPlCXV8xB_S1V8Xm-5" value="" style="endArrow=none;html=1;exitX=0.5;exitY=1;exitDx=0;exitDy=0;entryX=0.5;entryY=1;entryDx=0;entryDy=0;" parent="49K2uPlCXV8xB_S1V8Xm-1" source="49K2uPlCXV8xB_S1V8Xm-3" target="49K2uPlCXV8xB_S1V8Xm-2" edge="1">
          <mxGeometry width="50" height="50" relative="1" as="geometry">
            <mxPoint x="810" y="364.9999999999999" as="sourcePoint" />
            <mxPoint x="800" y="550" as="targetPoint" />
          </mxGeometry>
        </mxCell>
        <mxCell id="49K2uPlCXV8xB_S1V8Xm-6" value="" style="endArrow=none;html=1;exitX=1;exitY=0.5;exitDx=0;exitDy=0;" parent="49K2uPlCXV8xB_S1V8Xm-1" source="49K2uPlCXV8xB_S1V8Xm-3" edge="1">
          <mxGeometry width="50" height="50" relative="1" as="geometry">
            <mxPoint x="810" y="535" as="sourcePoint" />
            <mxPoint x="920" y="440" as="targetPoint" />
          </mxGeometry>
        </mxCell>
        <mxCell id="49K2uPlCXV8xB_S1V8Xm-7" value="" style="endArrow=none;html=1;entryX=0;entryY=0.5;entryDx=0;entryDy=0;exitX=0;exitY=0.5;exitDx=0;exitDy=0;" parent="49K2uPlCXV8xB_S1V8Xm-1" source="49K2uPlCXV8xB_S1V8Xm-2" target="49K2uPlCXV8xB_S1V8Xm-3" edge="1">
          <mxGeometry width="50" height="50" relative="1" as="geometry">
            <mxPoint x="895.0000000000005" y="450" as="sourcePoint" />
            <mxPoint x="933.1200000000001" y="450.48" as="targetPoint" />
          </mxGeometry>
        </mxCell>
        <mxCell id="49K2uPlCXV8xB_S1V8Xm-8" value="" style="endArrow=none;html=1;exitX=1;exitY=1;exitDx=0;exitDy=0;entryX=1;entryY=1;entryDx=0;entryDy=0;" parent="49K2uPlCXV8xB_S1V8Xm-1" source="49K2uPlCXV8xB_S1V8Xm-2" target="49K2uPlCXV8xB_S1V8Xm-3" edge="1">
          <mxGeometry width="50" height="50" relative="1" as="geometry">
            <mxPoint x="895.0000000000005" y="450" as="sourcePoint" />
            <mxPoint x="970" y="530" as="targetPoint" />
          </mxGeometry>
        </mxCell>
        <mxCell id="49K2uPlCXV8xB_S1V8Xm-11" value="" style="endArrow=none;html=1;exitX=1;exitY=0;exitDx=0;exitDy=0;" parent="49K2uPlCXV8xB_S1V8Xm-1" source="49K2uPlCXV8xB_S1V8Xm-2" target="49K2uPlCXV8xB_S1V8Xm-3" edge="1">
          <mxGeometry width="50" height="50" relative="1" as="geometry">
            <mxPoint x="894.8528137423855" y="534.8528137423855" as="sourcePoint" />
            <mxPoint x="870.1040764008567" y="510.1040764008567" as="targetPoint" />
          </mxGeometry>
        </mxCell>
        <mxCell id="49K2uPlCXV8xB_S1V8Xm-12" value="" style="endArrow=none;html=1;exitX=0;exitY=0;exitDx=0;exitDy=0;entryX=0;entryY=0;entryDx=0;entryDy=0;" parent="49K2uPlCXV8xB_S1V8Xm-1" source="49K2uPlCXV8xB_S1V8Xm-2" target="49K2uPlCXV8xB_S1V8Xm-3" edge="1">
          <mxGeometry width="50" height="50" relative="1" as="geometry">
            <mxPoint x="894.8528137423855" y="365.1471862576145" as="sourcePoint" />
            <mxPoint x="870.1040764008567" y="389.8959235991433" as="targetPoint" />
          </mxGeometry>
        </mxCell>
        <mxCell id="49K2uPlCXV8xB_S1V8Xm-13" value="" style="endArrow=none;html=1;exitX=0;exitY=1;exitDx=0;exitDy=0;entryX=0;entryY=1;entryDx=0;entryDy=0;" parent="49K2uPlCXV8xB_S1V8Xm-1" source="49K2uPlCXV8xB_S1V8Xm-3" target="49K2uPlCXV8xB_S1V8Xm-2" edge="1">
          <mxGeometry width="50" height="50" relative="1" as="geometry">
            <mxPoint x="894.8528137423855" y="534.8528137423855" as="sourcePoint" />
            <mxPoint x="870.1040764008567" y="510.1040764008567" as="targetPoint" />
          </mxGeometry>
        </mxCell>
        <mxCell id="49K2uPlCXV8xB_S1V8Xm-14" value="&lt;font style=&quot;font-size: 24px&quot;&gt;Monitor&lt;/font&gt;" style="rounded=1;whiteSpace=wrap;html=1;fillColor=none;" parent="49K2uPlCXV8xB_S1V8Xm-1" vertex="1">
          <mxGeometry x="1090" y="250" width="120" height="60" as="geometry" />
        </mxCell>
        <mxCell id="49K2uPlCXV8xB_S1V8Xm-15" value="&lt;font style=&quot;font-size: 24px&quot;&gt;Agent&lt;/font&gt;" style="rounded=1;whiteSpace=wrap;html=1;fillColor=none;" parent="49K2uPlCXV8xB_S1V8Xm-1" vertex="1">
          <mxGeometry x="1090" y="365" width="120" height="60" as="geometry" />
        </mxCell>
        <mxCell id="49K2uPlCXV8xB_S1V8Xm-16" value="&lt;font style=&quot;font-size: 24px&quot;&gt;Load&lt;/font&gt;" style="rounded=1;whiteSpace=wrap;html=1;fillColor=none;" parent="49K2uPlCXV8xB_S1V8Xm-1" vertex="1">
          <mxGeometry x="1090" y="535" width="120" height="60" as="geometry" />
        </mxCell>
        <mxCell id="49K2uPlCXV8xB_S1V8Xm-18" value="&lt;font style=&quot;font-size: 36px&quot;&gt;... ...&lt;/font&gt;" style="text;html=1;strokeColor=none;fillColor=none;align=center;verticalAlign=middle;whiteSpace=wrap;rounded=0;" parent="49K2uPlCXV8xB_S1V8Xm-1" vertex="1">
          <mxGeometry x="1080" y="456" width="140" height="20" as="geometry" />
        </mxCell>
        <mxCell id="49K2uPlCXV8xB_S1V8Xm-19" value="" style="endArrow=classic;html=1;entryX=1;entryY=0.5;entryDx=0;entryDy=0;exitX=0;exitY=0.5;exitDx=0;exitDy=0;" parent="49K2uPlCXV8xB_S1V8Xm-1" source="49K2uPlCXV8xB_S1V8Xm-16" target="49K2uPlCXV8xB_S1V8Xm-2" edge="1">
          <mxGeometry width="50" height="50" relative="1" as="geometry">
            <mxPoint x="450" y="440" as="sourcePoint" />
            <mxPoint x="500" y="390" as="targetPoint" />
          </mxGeometry>
        </mxCell>
        <mxCell id="49K2uPlCXV8xB_S1V8Xm-20" value="" style="endArrow=classic;html=1;exitX=0;exitY=0.5;exitDx=0;exitDy=0;" parent="49K2uPlCXV8xB_S1V8Xm-1" source="49K2uPlCXV8xB_S1V8Xm-15" edge="1">
          <mxGeometry width="50" height="50" relative="1" as="geometry">
            <mxPoint x="450" y="440" as="sourcePoint" />
            <mxPoint x="920" y="440" as="targetPoint" />
          </mxGeometry>
        </mxCell>
        <mxCell id="49K2uPlCXV8xB_S1V8Xm-21" value="" style="endArrow=classic;html=1;exitX=0;exitY=0.5;exitDx=0;exitDy=0;" parent="49K2uPlCXV8xB_S1V8Xm-1" source="49K2uPlCXV8xB_S1V8Xm-14" edge="1">
          <mxGeometry width="50" height="50" relative="1" as="geometry">
            <mxPoint x="1100" y="405" as="sourcePoint" />
            <mxPoint x="920" y="440" as="targetPoint" />
          </mxGeometry>
        </mxCell>
        <mxCell id="49K2uPlCXV8xB_S1V8Xm-25" value="" style="group" parent="49K2uPlCXV8xB_S1V8Xm-1" vertex="1" connectable="0">
          <mxGeometry x="410" y="410" width="140" height="84" as="geometry" />
        </mxCell>
        <mxCell id="49K2uPlCXV8xB_S1V8Xm-22" value="" style="rounded=1;whiteSpace=wrap;html=1;" parent="49K2uPlCXV8xB_S1V8Xm-25" vertex="1">
          <mxGeometry x="20" width="120" height="60" as="geometry" />
        </mxCell>
        <mxCell id="49K2uPlCXV8xB_S1V8Xm-23" value="" style="rounded=1;whiteSpace=wrap;html=1;" parent="49K2uPlCXV8xB_S1V8Xm-25" vertex="1">
          <mxGeometry x="10" y="12" width="120" height="60" as="geometry" />
        </mxCell>
        <mxCell id="49K2uPlCXV8xB_S1V8Xm-24" value="&lt;span style=&quot;font-size: 24px&quot;&gt;Kafka&lt;/span&gt;" style="rounded=1;whiteSpace=wrap;html=1;" parent="49K2uPlCXV8xB_S1V8Xm-25" vertex="1">
          <mxGeometry y="24" width="120" height="60" as="geometry" />
        </mxCell>
        <mxCell id="49K2uPlCXV8xB_S1V8Xm-26" value="" style="endArrow=classic;html=1;entryX=1;entryY=0.5;entryDx=0;entryDy=0;" parent="49K2uPlCXV8xB_S1V8Xm-1" target="49K2uPlCXV8xB_S1V8Xm-22" edge="1">
          <mxGeometry width="50" height="50" relative="1" as="geometry">
            <mxPoint x="680" y="440" as="sourcePoint" />
            <mxPoint x="630" y="310" as="targetPoint" />
          </mxGeometry>
        </mxCell>
      </root>
    </mxGraphModel>
  </diagram>
</mxfile>
